<?xml version="1.0" encoding="UTF-8"?>
<svg version="1.1" xmlns="http://www.w3.org/2000/svg" width="270" height="270">
<path d="M0 0 C1.65 0 3.3 0 5 0 C5.495 1.485 5.495 1.485 6 3 C6.66 3.33 7.32 3.66 8 4 C8.66 4.33 9.32 4.66 10 5 C10.495 6.485 10.495 6.485 11 8 C11.61617187 8.14179687 12.23234375 8.28359375 12.8671875 8.4296875 C16.543577 9.41275136 17.74511617 12.51584285 19.671875 15.60546875 C23.19395834 21.95557783 23.25580651 27.93689804 23 35 C23.96292969 35.37898438 23.96292969 35.37898438 24.9453125 35.765625 C25.62335938 36.17296875 26.30140625 36.5803125 27 37 C28.25809613 42.39184057 28.20420729 45.8136299 26 51 C25.34 51 24.68 51 24 51 C23.814375 52.3921875 23.814375 52.3921875 23.625 53.8125 C23 57 23 57 21 60 C22.37671875 60.20302734 22.37671875 60.20302734 23.78125 60.41015625 C32.11477687 61.87202493 37.32135899 63.66495694 43 70 C43.66 70.66 44.32 71.32 45 72 C46.95111954 51.31414978 46.95111954 51.31414978 42.86328125 31.26171875 C42.57839844 30.51535156 42.29351562 29.76898438 42 29 C42.33 28.34 42.66 27.68 43 27 C45.25 26.75 45.25 26.75 48 27 C49.32 28.32 50.64 29.64 52 31 C53.98 27.04 55.96 23.08 58 19 C59.98 19.33 61.96 19.66 64 20 C64.99 19.67 65.98 19.34 67 19 C67.66 19.33 68.32 19.66 69 20 C69 21.32 69 22.64 69 24 C70.485 24.495 70.485 24.495 72 25 C72.042721 26.66611905 72.04063832 28.33382885 72 30 C71.505 30.495 71.505 30.495 71 31 C71.99 31.66 72.98 32.32 74 33 C72.57292963 37.03846204 70.63122108 40.22134896 68.125 43.6875 C67.44695312 44.64011719 66.76890625 45.59273437 66.0703125 46.57421875 C64.10036623 48.88240107 62.79389776 49.92879705 60 51 C60.18175781 51.56203125 60.36351562 52.1240625 60.55078125 52.703125 C64.17839879 64.83238982 70.52564767 86.8854973 64.6015625 98.81640625 C62.64611161 101.48249661 61.72605991 101.87293952 58.5 102.4375 C49.95584882 101.3694811 42.83341814 94.50637078 36.29077148 89.25244141 C33.49223185 86.77560714 33.49223185 86.77560714 30 86 C29.91665343 91.25083402 30.03847352 96.26931462 30.78125 101.46875 C31.11225197 105.29891561 31 109.15555844 31 113 C11.86 113 -7.28 113 -27 113 C-25.51213011 84.73047215 -25.51213011 84.73047215 -16.6875 75.4921875 C-14.1318206 73.23230433 -11.43673361 71.20839575 -8.63671875 69.26171875 C-6.85887663 68.08053657 -6.85887663 68.08053657 -6 66 C-6.70125 65.773125 -7.4025 65.54625 -8.125 65.3125 C-11 64 -11 64 -14.0625 61.4375 C-16.66072314 58.91337404 -16.66072314 58.91337404 -19.125 58.5 C-22.313177 57.64981947 -23.31056304 55.73805301 -25 53 C-25.7567807 50.20698921 -25.90496303 47.94614606 -26 45 C-25.34 44.01 -24.68 43.02 -24 42 C-24.47504223 40.16769424 -24.95665123 38.3368192 -25.47265625 36.515625 C-26.79802792 30.19311126 -26.82306241 23.51250632 -24.8125 17.375 C-22.7665457 14.69409437 -20.9405155 13.6102823 -18 12 C-17.21625 11.21625 -16.4325 10.4325 -15.625 9.625 C-12.67383057 6.67383057 -9.74574869 3.90273795 -6 2 C-3.0625 2.1875 -3.0625 2.1875 -1 3 C-0.67 2.01 -0.34 1.02 0 0 Z " fill="#CBCBCB" transform="translate(124,63)"/>
<path d="M0 0 C1.65 0 3.3 0 5 0 C5.33 0.99 5.66 1.98 6 3 C6.66 3.33 7.32 3.66 8 4 C8.66 4.33 9.32 4.66 10 5 C10.495 6.485 10.495 6.485 11 8 C11.61617187 8.14179687 12.23234375 8.28359375 12.8671875 8.4296875 C16.543577 9.41275136 17.74511617 12.51584285 19.671875 15.60546875 C23.19395834 21.95557783 23.25580651 27.93689804 23 35 C23.96292969 35.37898438 23.96292969 35.37898438 24.9453125 35.765625 C25.62335938 36.17296875 26.30140625 36.5803125 27 37 C28.25809613 42.39184057 28.20420729 45.8136299 26 51 C25.34 51 24.68 51 24 51 C23.814375 52.36125 23.814375 52.36125 23.625 53.75 C23.06763469 56.6482996 22.4309917 58.47472054 21 61 C20.731875 61.61875 20.46375 62.2375 20.1875 62.875 C17.84964446 67.05853097 14.97647111 70.34901926 11 73 C8.73168945 73.22705078 8.73168945 73.22705078 6.11328125 73.1953125 C5.17548828 73.18886719 4.23769531 73.18242187 3.27148438 73.17578125 C1.80678711 73.15064453 1.80678711 73.15064453 0.3125 73.125 C-1.16959961 73.11146484 -1.16959961 73.11146484 -2.68164062 73.09765625 C-5.12133765 73.0740843 -7.56054697 73.04118022 -10 73 C-9.30621489 69.73988358 -8.54106009 68.20961747 -6 66 C-6.70125 65.773125 -7.4025 65.54625 -8.125 65.3125 C-11 64 -11 64 -14.0625 61.4375 C-16.66072314 58.91337404 -16.66072314 58.91337404 -19.125 58.5 C-22.313177 57.64981947 -23.31056304 55.73805301 -25 53 C-25.7567807 50.20698921 -25.90496303 47.94614606 -26 45 C-25.34 44.01 -24.68 43.02 -24 42 C-24.47504223 40.16769424 -24.95665123 38.3368192 -25.47265625 36.515625 C-26.79802792 30.19311126 -26.82306241 23.51250632 -24.8125 17.375 C-22.7665457 14.69409437 -20.9405155 13.6102823 -18 12 C-17.21625 11.21625 -16.4325 10.4325 -15.625 9.625 C-12.67383057 6.67383057 -9.74574869 3.90273795 -6 2 C-3.0625 2.1875 -3.0625 2.1875 -1 3 C-0.67 2.01 -0.34 1.02 0 0 Z " fill="#25201C" transform="translate(124,63)"/>
<path d="M0 0 C1.98 0.33 3.96 0.66 6 1 C6.99 0.67 7.98 0.34 9 0 C9.66 0.33 10.32 0.66 11 1 C11 2.32 11 3.64 11 5 C11.99 5.33 12.98 5.66 14 6 C14.042721 7.66611905 14.04063832 9.33382885 14 11 C13.67 11.33 13.34 11.66 13 12 C13.99 12.66 14.98 13.32 16 14 C14.57292963 18.03846204 12.63122108 21.22134896 10.125 24.6875 C9.44695312 25.64011719 8.76890625 26.59273437 8.0703125 27.57421875 C6.10036623 29.88240107 4.79389776 30.92879705 2 32 C2.18175781 32.56203125 2.36351562 33.1240625 2.55078125 33.703125 C6.17839879 45.83238982 12.52564767 67.8854973 6.6015625 79.81640625 C4.64611161 82.48249661 3.72605991 82.87293952 0.5 83.4375 C-8.04415118 82.3694811 -15.16658186 75.50637078 -21.70922852 70.25244141 C-24.50776815 67.77560714 -24.50776815 67.77560714 -28 67 C-28.0723853 71.56027393 -28.06692261 75.97260393 -27.5 80.5 C-26.93307739 85.02739607 -26.9276147 89.43972607 -27 94 C-28.65 94 -30.3 94 -32 94 C-31.89171875 92.85724609 -31.89171875 92.85724609 -31.78125 91.69140625 C-30.81370218 80.9274368 -31.06796492 70.76833385 -32 60 C-24.12288434 62.02592484 -18.66877874 64.44228837 -12.9375 70.29296875 C-10.90623842 72.08260849 -9.64321849 72.60469723 -7 73 C-7.3609375 72.00226563 -7.721875 71.00453125 -8.09375 69.9765625 C-11.65642409 59.27455898 -12.34967847 49.6122534 -12.11767578 38.36499023 C-11.8259617 25.05594642 -11.8259617 25.05594642 -15.1328125 12.26953125 C-15.41898438 11.52058594 -15.70515625 10.77164063 -16 10 C-15.67 9.34 -15.34 8.68 -15 8 C-12.75 7.75 -12.75 7.75 -10 8 C-8.68 9.32 -7.36 10.64 -6 12 C-4.02 8.04 -2.04 4.08 0 0 Z " fill="#A1A1A1" transform="translate(182,82)"/>
<path d="M0 0 C9.35370278 -0.43891202 9.35370278 -0.43891202 12.5 1.390625 C16.25117092 5.67927713 17.55859375 10.71234734 17.55859375 16.26171875 C18.87859375 15.93171875 20.19859375 15.60171875 21.55859375 15.26171875 C23.63385278 17.75202959 24.56508932 19.55261849 24.53515625 22.8203125 C24.27329193 25.31510098 23.95769426 27.78537224 23.55859375 30.26171875 C22.23859375 30.26171875 20.91859375 30.26171875 19.55859375 30.26171875 C18.34171875 30.28234375 17.12484375 30.30296875 15.87109375 30.32421875 C12.55859375 30.26171875 12.55859375 30.26171875 11.55859375 29.26171875 C6.13297741 28.35041772 1.20627789 27.72196015 -4.06640625 29.44921875 C-6.45354987 31.27098625 -7.47090898 32.44727668 -8.44140625 35.26171875 C-11.62890625 35.63671875 -11.62890625 35.63671875 -15.44140625 35.26171875 C-18.48332266 32.83588668 -20.21224299 29.94920854 -21.44140625 26.26171875 C-21.56395793 23.43733005 -21.62653494 20.64845113 -21.62890625 17.82421875 C-21.64115234 17.06044922 -21.65339844 16.29667969 -21.66601562 15.50976562 C-21.68505006 8.21957715 -21.68505006 8.21957715 -19.44140625 5.26171875 C-13.54408937 0.90102669 -7.04459042 0.5357407 0 0 Z " fill="#DFB497" transform="translate(127.44140625,82.73828125)"/>
<path d="M0 0 C0.33 0.99 0.66 1.98 1 3 C1.85464844 2.98839844 2.70929688 2.97679688 3.58984375 2.96484375 C4.69457031 2.95582031 5.79929688 2.94679688 6.9375 2.9375 C8.03964844 2.92589844 9.14179688 2.91429688 10.27734375 2.90234375 C13 3 13 3 14 4 C15.155 4 16.31 4 17.5 4 C18.655 4 19.81 4 21 4 C21.495 4.495 21.495 4.495 22 5 C21.61312372 9.10088856 21.08859563 12.43710158 19 16 C18.731875 16.61875 18.46375 17.2375 18.1875 17.875 C15.84964446 22.05853097 12.97647111 25.34901926 9 28 C6.73168945 28.22705078 6.73168945 28.22705078 4.11328125 28.1953125 C3.17548828 28.18886719 2.23769531 28.18242187 1.27148438 28.17578125 C-0.19321289 28.15064453 -0.19321289 28.15064453 -1.6875 28.125 C-2.67556641 28.11597656 -3.66363281 28.10695312 -4.68164062 28.09765625 C-7.12133765 28.0740843 -9.56054697 28.04118022 -12 28 C-11.30621489 24.73988358 -10.54106009 23.20961747 -8 21 C-8.721875 20.773125 -9.44375 20.54625 -10.1875 20.3125 C-13.68106245 18.68217086 -15.58921422 17.01348223 -18 14 C-18.8125 10.1875 -18.8125 10.1875 -19 7 C-15.125 7.875 -15.125 7.875 -14 9 C-11.67182036 9.36760731 -9.3381615 9.70241581 -7 10 C-6.87625 9.38125 -6.7525 8.7625 -6.625 8.125 C-6 6 -6 6 -4 4 C-2.68 4 -1.36 4 0 4 C0 2.68 0 1.36 0 0 Z " fill="#272422" transform="translate(126,108)"/>
<path d="M0 0 C2.97 0.495 2.97 0.495 6 1 C6.99 0.67 7.98 0.34 9 0 C9.66 0.33 10.32 0.66 11 1 C11 2.32 11 3.64 11 5 C11.99 5.33 12.98 5.66 14 6 C14 6.99 14 7.98 14 9 C13.34 9 12.68 9 12 9 C11.731875 9.5775 11.46375 10.155 11.1875 10.75 C9.98280141 13.0325868 8.59201885 14.9737942 7 17 C7.33 17.33 7.66 17.66 8 18 C8.433125 17.34 8.86625 16.68 9.3125 16 C9.869375 15.34 10.42625 14.68 11 14 C11.99 14 12.98 14 14 14 C12.125 18.75 12.125 18.75 11 21 C10.34 21 9.68 21 9 21 C8.7525 21.7425 8.505 22.485 8.25 23.25 C6.76675119 26.51314739 5.98447057 27.96182497 3 30 C-0.65925154 30.63363663 -4.29143672 30.87211851 -8 31 C-8.12375 29.865625 -8.2475 28.73125 -8.375 27.5625 C-8.58125 26.386875 -8.7875 25.21125 -9 24 C-9.66 23.67 -10.32 23.34 -11 23 C-11 19.7 -11 16.4 -11 13 C-12.32 12.34 -13.64 11.68 -15 11 C-15 10.01 -15 9.02 -15 8 C-12.75 7.75 -12.75 7.75 -10 8 C-8.68 9.32 -7.36 10.64 -6 12 C-4.02 8.04 -2.04 4.08 0 0 Z " fill="#E0B498" transform="translate(182,82)"/>
<path d="M0 0 C3.63 0 7.26 0 11 0 C13.32654024 13.79306 14.40559032 27.01464504 14 41 C10.81685629 42.59157185 7.45673445 42.53017399 4 42 C2 40.125 2 40.125 1 38 C1 37.34 1 36.68 1 36 C1.99 35.505 1.99 35.505 3 35 C3.464253 23.29050758 2.03336253 11.52238768 0 0 Z " fill="#CACACA" transform="translate(174,119)"/>
<path d="M0 0 C1.65 0 3.3 0 5 0 C5.33 0.99 5.66 1.98 6 3 C6.66 3.33 7.32 3.66 8 4 C8.66 4.33 9.32 4.66 10 5 C10.33 5.99 10.66 6.98 11 8 C11.61617187 8.14179687 12.23234375 8.28359375 12.8671875 8.4296875 C16.5446641 9.41304205 17.7467787 12.51755367 19.671875 15.609375 C23.36130829 22.25035492 23.24051984 28.61069611 23 36 C22.34 36 21.68 36 21 36 C20.74605469 35.16855469 20.49210937 34.33710937 20.23046875 33.48046875 C19.88628906 32.39378906 19.54210937 31.30710937 19.1875 30.1875 C18.85105469 29.10855469 18.51460937 28.02960938 18.16796875 26.91796875 C17.04408984 24.11015088 16.42548392 22.73902621 14 21 C11.73606029 20.21643098 11.73606029 20.21643098 9.3125 19.8125 C8.10013672 19.57466797 8.10013672 19.57466797 6.86328125 19.33203125 C6.24839844 19.22246094 5.63351563 19.11289063 5 19 C5.33773437 18.42765625 5.67546875 17.8553125 6.0234375 17.265625 C7.12619223 14.70723404 7.07693489 13.46160933 6.625 10.75 C6.41875 9.5125 6.2125 8.275 6 7 C5.34 7 4.68 7 4 7 C4 6.34 4 5.68 4 5 C0.84866512 6.83827868 -2.11964908 8.75972706 -5 11 C-5.66 10.67 -6.32 10.34 -7 10 C-6.01 7.36 -5.02 4.72 -4 2 C-3.01 2.33 -2.02 2.66 -1 3 C-0.67 2.01 -0.34 1.02 0 0 Z " fill="#27221F" transform="translate(124,63)"/>
<path d="M0 0 C0.33 0.99 0.66 1.98 1 3 C1.83144531 2.96519531 2.66289062 2.93039063 3.51953125 2.89453125 C5.14955078 2.85392578 5.14955078 2.85392578 6.8125 2.8125 C7.89144531 2.77769531 8.97039062 2.74289063 10.08203125 2.70703125 C13 3 13 3 14.88671875 4.51171875 C15.25410156 5.00285156 15.62148437 5.49398437 16 6 C12.77463219 12.91150245 12.77463219 12.91150245 10 15 C6.96875 15.6171875 6.96875 15.6171875 3.5 15.875 C2.3553125 15.97554687 1.210625 16.07609375 0.03125 16.1796875 C-3 16 -3 16 -4.90625 14.5078125 C-5.44765625 13.76144531 -5.44765625 13.76144531 -6 13 C-5.67 12.01 -5.34 11.02 -5 10 C-4.34 9.67 -3.68 9.34 -3 9 C-4.32 8.34 -5.64 7.68 -7 7 C-5.75 5.5 -5.75 5.5 -4 4 C-2.68 4 -1.36 4 0 4 C0 2.68 0 1.36 0 0 Z " fill="#3B3835" transform="translate(126,108)"/>
<path d="M0 0 C0.66 0 1.32 0 2 0 C1.67 0.99 1.34 1.98 1 3 C1.99 3.66 2.98 4.32 4 5 C2.57292963 9.03846204 0.63122108 12.22134896 -1.875 15.6875 C-2.55304688 16.64011719 -3.23109375 17.59273437 -3.9296875 18.57421875 C-5.89963377 20.88240107 -7.20610224 21.92879705 -10 23 C-10 24.65 -10 26.3 -10 28 C-14.29 28 -18.58 28 -23 28 C-23.19335938 26.46988281 -23.38671875 24.93976563 -23.5859375 23.36328125 C-23.84861294 21.34630915 -24.11165287 19.32938451 -24.375 17.3125 C-24.50132812 16.30509766 -24.62765625 15.29769531 -24.7578125 14.25976562 C-24.88671875 13.28330078 -25.015625 12.30683594 -25.1484375 11.30078125 C-25.26364746 10.40528564 -25.37885742 9.50979004 -25.49755859 8.5871582 C-26.02487431 5.87191784 -26.89548431 3.5300188 -28 1 C-25.5 1.875 -25.5 1.875 -23 4 C-22.53912752 7.36708009 -22.71473072 10.62114388 -23 14 C-22.01 14.33 -21.02 14.66 -20 15 C-20 17.31 -20 19.62 -20 22 C-12.89965717 21.59793353 -12.89965717 21.59793353 -7.00390625 18.0859375 C-5.42311318 15.91419071 -5.42311318 15.91419071 -4.12109375 13.6796875 C-3.75113281 13.12539062 -3.38117188 12.57109375 -3 12 C-2.34 12 -1.68 12 -1 12 C-0.690625 11.21625 -0.38125 10.4325 -0.0625 9.625 C1 7 1 7 2 5 C-1.69418201 6.231394 -3.35109746 8.20791354 -6 11 C-5.39096941 7.90694578 -4.40131197 5.80360238 -2.5625 3.25 C-1.91474609 2.32960938 -1.91474609 2.32960938 -1.25390625 1.390625 C-0.84011719 0.93171875 -0.42632812 0.4728125 0 0 Z " fill="#986E50" transform="translate(194,91)"/>
<path d="M0 0 C0.99 0.33 1.98 0.66 3 1 C2.67 2.65 2.34 4.3 2 6 C5.63 6 9.26 6 13 6 C12.67 6.66 12.34 7.32 12 8 C10.865625 8.268125 9.73125 8.53625 8.5625 8.8125 C4.82740532 9.60878998 4.82740532 9.60878998 3.5625 12.625 C3.2840625 13.800625 3.2840625 13.800625 3 15 C3.70125 14.649375 4.4025 14.29875 5.125 13.9375 C8.50268586 12.8360807 10.58080593 13.20483859 14 14 C13.34 15.65 12.68 17.3 12 19 C10.35 19 8.7 19 7 19 C6.67 18.34 6.34 17.68 6 17 C4.71387324 18.05978933 4.71387324 18.05978933 4.90234375 20.50390625 C4.91394531 21.51324219 4.92554687 22.52257812 4.9375 23.5625 C4.94652344 24.57441406 4.95554687 25.58632812 4.96484375 26.62890625 C4.97644531 27.41136719 4.98804687 28.19382812 5 29 C6.98 28.67 8.96 28.34 11 28 C11 28.66 11 29.32 11 30 C7.8125 30.375 7.8125 30.375 4 30 C0.95808359 27.57416793 -0.77083674 24.68748979 -2 21 C-2.12255168 18.1756113 -2.18512869 15.38673238 -2.1875 12.5625 C-2.19974609 11.79873047 -2.21199219 11.03496094 -2.22460938 10.24804688 C-2.24268746 3.32414149 -2.24268746 3.32414149 0 0 Z " fill="#A77E62" transform="translate(108,88)"/>
<path d="M0 0 C0.33 0.99 0.66 1.98 1 3 C2.32 2.67 3.64 2.34 5 2 C2.87880087 7.01374339 -0.493195 10.99546333 -5 14 C-7.26831055 14.22705078 -7.26831055 14.22705078 -9.88671875 14.1953125 C-11.2934082 14.18564453 -11.2934082 14.18564453 -12.72851562 14.17578125 C-14.19321289 14.15064453 -14.19321289 14.15064453 -15.6875 14.125 C-16.67556641 14.11597656 -17.66363281 14.10695312 -18.68164062 14.09765625 C-21.12133765 14.0740843 -23.56054697 14.04118022 -26 14 C-24.84416027 8.92347334 -24.84416027 8.92347334 -22 7 C-18.63671875 6.59375 -18.63671875 6.59375 -14.6875 6.5 C-9.32546882 6.37195149 -5.57090232 5.93201601 -1 3 C-0.67 2.01 -0.34 1.02 0 0 Z " fill="#191614" transform="translate(140,122)"/>
<path d="M0 0 C3.10468986 2.54020079 3.98485936 5.17370067 5 9 C5 10.32 5 11.64 5 13 C6.32 12.67 7.64 12.34 9 12 C11.07525903 14.49031084 12.00649557 16.29089974 11.9765625 19.55859375 C11.71469818 22.05338223 11.39910051 24.52365349 11 27 C8 27 5 27 2 27 C2.66 26.67 3.32 26.34 4 26 C4.30115186 20.17624838 4.30115186 20.17624838 2 15 C1.34 14.67 0.68 14.34 0 14 C-0.33 14.99 -0.66 15.98 -1 17 C-2.65 17.33 -4.3 17.66 -6 18 C-6 17.34 -6 16.68 -6 16 C-5.34 16 -4.68 16 -4 16 C-4 15.34 -4 14.68 -4 14 C-4.66 13.67 -5.32 13.34 -6 13 C-5 12 -5 12 -1.4375 11.9375 C-0.303125 11.958125 0.83125 11.97875 2 12 C1.67 11.01 1.34 10.02 1 9 C-1.10584438 8.19436362 -1.10584438 8.19436362 -3.5625 7.8125 C-4.38878906 7.65394531 -5.21507812 7.49539062 -6.06640625 7.33203125 C-6.70449219 7.22246094 -7.34257812 7.11289063 -8 7 C-7.67 6.34 -7.34 5.68 -7 5 C-4.69 5 -2.38 5 0 5 C0 3.35 0 1.7 0 0 Z " fill="#A47C5F" transform="translate(140,86)"/>
<path d="M0 0 C6.81733321 2.08497917 10.92723432 4.40830316 15.328125 10.03515625 C17.04712727 12.05538556 18.74483753 13.3971455 20.9375 14.875 C21.948125 15.57625 22.95875 16.2775 24 17 C24 17.66 24 18.32 24 19 C25.13888672 19.09087891 25.13888672 19.09087891 26.30078125 19.18359375 C27.29464844 19.26738281 28.28851563 19.35117188 29.3125 19.4375 C30.29863281 19.51871094 31.28476563 19.59992188 32.30078125 19.68359375 C35 20 35 20 38 21 C34.34857269 23.43428487 33.32288211 23.62878285 29 23 C22.11387865 19.83138619 16.16852888 14.97244599 10.29077148 10.25244141 C7.49223185 7.77560714 7.49223185 7.77560714 4 7 C3.9276147 11.56027393 3.93307739 15.97260393 4.5 20.5 C5.06692261 25.02739607 5.0723853 29.43972607 5 34 C3.35 34 1.7 34 0 34 C0.0721875 33.23816406 0.144375 32.47632813 0.21875 31.69140625 C1.18629782 20.9274368 0.93203508 10.76833385 0 0 Z " fill="#7C7C7C" transform="translate(150,142)"/>
<path d="M0 0 C0.33 0 0.66 0 1 0 C7.29815745 35.55276382 7.29815745 35.55276382 3 42 C-2.40534019 43.17115704 -5.80744353 43.2068365 -11 41 C-11 40.34 -11 39.68 -11 39 C-11.53625 38.773125 -12.0725 38.54625 -12.625 38.3125 C-18.27219971 35.19167911 -21.71904023 31.4262027 -25 26 C-21.5718511 27.53155726 -18.89928575 29.56415175 -16 31.9375 C-12.40998671 34.87023741 -12.40998671 34.87023741 -8.6875 37.62890625 C-8.130625 38.08136719 -7.57375 38.53382813 -7 39 C-7 39.66 -7 40.32 -7 41 C-2.05 40.505 -2.05 40.505 3 40 C2.45730339 25.17540231 2.45730339 25.17540231 0.41015625 10.5 C-0.17197144 6.95179311 -0.13795635 3.58686517 0 0 Z " fill="#939393" transform="translate(185,120)"/>
<path d="M0 0 C0.33 0.66 0.66 1.32 1 2 C4.63 2 8.26 2 12 2 C12 2.33 12 2.66 12 3 C11.19175781 3.00257813 10.38351563 3.00515625 9.55078125 3.0078125 C2.74510368 3.16402451 2.74510368 3.16402451 -3 6.4375 C-5.70285274 10.57782499 -7.35866731 15.36025507 -9 20 C-9.66 19.34 -10.32 18.68 -11 18 C-11.95168683 20.85506049 -12.1900946 22.90937282 -12.31640625 25.88671875 C-12.35830078 26.82451172 -12.40019531 27.76230469 -12.44335938 28.72851562 C-12.48267578 29.70498047 -12.52199219 30.68144531 -12.5625 31.6875 C-12.60568359 32.67556641 -12.64886719 33.66363281 -12.69335938 34.68164062 C-12.79941654 37.12095546 -12.90147714 39.56037113 -13 42 C-13.99 42 -14.98 42 -16 42 C-15.84023785 28.24593144 -15.55545843 14.84925645 -5.42578125 4.30078125 C-3.70157745 2.72774052 -1.95485277 1.27817296 0 0 Z " fill="#AAAAAA" transform="translate(113,134)"/>
<path d="M0 0 C2.86724686 0.57344937 3.8614515 0.8614515 6 3 C7.2065625 3.433125 7.2065625 3.433125 8.4375 3.875 C11.34722823 5.15244166 12.39440074 6.29583282 14 9 C14 9.66 14 10.32 14 11 C15.299375 11.2165625 15.299375 11.2165625 16.625 11.4375 C18.875 11.8125 21.125 12.1875 23.375 12.5625 C24.674375 12.7790625 24.674375 12.7790625 26 13 C26 13.33 26 13.66 26 14 C17.40972872 15.02860853 11.34553631 15.70989029 4.1875 10.3125 C1.35966194 7.78986913 1.00885939 7.03661879 0.0625 3.125 C0.041875 2.09375 0.02125 1.0625 0 0 Z " fill="#191614" transform="translate(107,115)"/>
<path d="M0 0 C0.66 0.33 1.32 0.66 2 1 C3.32888592 5.98332221 3.32888592 5.98332221 3 9 C0.17966757 12.22323706 -1.56447337 13.8439645 -5.875 14.3125 C-6.926875 14.1578125 -6.926875 14.1578125 -8 14 C-9.17051429 11.65897141 -9.1992246 10.10647047 -9.25 7.5 C-9.27578125 6.7059375 -9.3015625 5.911875 -9.328125 5.09375 C-9.21984375 4.4028125 -9.1115625 3.711875 -9 3 C-8.01 2.34 -7.02 1.68 -6 1 C-6 1.99 -6 2.98 -6 4 C-4.35 3.67 -2.7 3.34 -1 3 C-0.67 2.01 -0.34 1.02 0 0 Z " fill="#E2BCA4" transform="translate(121,103)"/>
<path d="M0 0 C1.875 0.625 1.875 0.625 4 2 C5.88364104 6.03637365 6.25659559 8.72757499 5 13 C3.125 13.625 3.125 13.625 1 14 C0.34 13.34 -0.32 12.68 -1 12 C-1.804375 11.690625 -2.60875 11.38125 -3.4375 11.0625 C-5.97065221 10.0121686 -7.23145796 9.04778552 -9 7 C-8.67 6.01 -8.34 5.02 -8 4 C-5.36 4 -2.72 4 0 4 C0 2.68 0 1.36 0 0 Z " fill="#DBB399" transform="translate(139,99)"/>
<path d="M0 0 C0.6875 2.3125 0.6875 2.3125 1 5 C0.2884375 5.63421875 0.2884375 5.63421875 -0.4375 6.28125 C-2.70214446 8.77235891 -2.50957731 10.87813803 -2.6875 14.1875 C-2.75324219 15.27417969 -2.81898437 16.36085937 -2.88671875 17.48046875 C-2.92410156 18.31191406 -2.96148437 19.14335937 -3 20 C-4.65 20 -6.3 20 -8 20 C-8.22272302 13.20694776 -7.90100934 6.57139033 -6 0 C-3.50907189 -1.24546405 -2.58919267 -0.7767578 0 0 Z " fill="#B4B4B4" transform="translate(120,156)"/>
<path d="M0 0 C2.25 -0.25 2.25 -0.25 5 0 C7.3125 2 7.3125 2 9 4 C9.66 3.34 10.32 2.68 11 2 C10.67 3.98 10.34 5.96 10 8 C8.35 7.67 6.7 7.34 5 7 C5.33 7.763125 5.66 8.52625 6 9.3125 C7 12 7 12 7 15 C7.66 15 8.32 15 9 15 C9.33 16.98 9.66 18.96 10 21 C12.64 21 15.28 21 18 21 C18 21.33 18 21.66 18 22 C14.37 22.33 10.74 22.66 7 23 C6.87625 21.865625 6.7525 20.73125 6.625 19.5625 C6.41875 18.386875 6.2125 17.21125 6 16 C5.34 15.67 4.68 15.34 4 15 C4 11.7 4 8.4 4 5 C2.68 4.34 1.36 3.68 0 3 C0 2.01 0 1.02 0 0 Z " fill="#B58766" transform="translate(167,90)"/>
<path d="M0 0 C2.3125 0.375 2.3125 0.375 5 2 C7.15000689 6.60831665 8.68016581 11.05156645 7 16 C4.07459717 15.68656398 2.98592189 14.98672635 0.8125 12.9375 C-1.57411991 9.06952981 -1.85136438 6.53338651 -2 2 C-1.34 1.34 -0.68 0.68 0 0 Z " fill="#C0A28E" transform="translate(100,106)"/>
<path d="M0 0 C3.3 0.66 6.6 1.32 10 2 C10.33 3.32 10.66 4.64 11 6 C8.69 6.33 6.38 6.66 4 7 C4.33 7.99 4.66 8.98 5 10 C2.625 11.0625 2.625 11.0625 0 12 C-0.66 11.67 -1.32 11.34 -2 11 C-2.25 3.375 -2.25 3.375 0 0 Z " fill="#CB9E80" transform="translate(131,92)"/>
<path d="M0 0 C5.75 1.875 5.75 1.875 8 3 C8 3.66 8 4.32 8 5 C8.99 5.33 9.98 5.66 11 6 C10.01 6.495 10.01 6.495 9 7 C6.69 6.01 4.38 5.02 2 4 C2.33 9.61 2.66 15.22 3 21 C1.22293791 18.33440687 0.12451727 15.9719385 -1 13 C-1.66 13.99 -2.32 14.98 -3 16 C-4.35862069 9.70094044 -4.35862069 9.70094044 -2.625 6.3125 C-2.08875 5.549375 -1.5525 4.78625 -1 4 C-0.30420546 1.80869466 -0.30420546 1.80869466 0 0 Z " fill="#9C9C9C" transform="translate(149,139)"/>
<path d="M0 0 C2.97 0 5.94 0 9 0 C9 0.33 9 0.66 9 1 C6.69 1.66 4.38 2.32 2 3 C2 4.32 2 5.64 2 7 C4.41835897 6.91277063 6.83313316 6.80588627 9.25 6.6875 C9.93191406 6.66494141 10.61382812 6.64238281 11.31640625 6.61914062 C15.45151296 6.39833396 17.97914434 5.90407 21 3 C20.12259699 6.03102856 19.65071148 7.61722854 16.875 9.25 C5.92982456 12.10526316 5.92982456 12.10526316 2 10 C0.64721885 8.01310269 -0.68568305 6.01254782 -2 4 C-4.10039331 2.61131484 -4.10039331 2.61131484 -6 2 C-4.02 2 -2.04 2 0 2 C0 1.34 0 0.68 0 0 Z " fill="#2F2C2A" transform="translate(119,116)"/>
<path d="M0 0 C0 1.32 0 2.64 0 4 C0.66 4.33 1.32 4.66 2 5 C0.625 6.5 0.625 6.5 -1 8 C-1.66 8 -2.32 8 -3 8 C-3.309375 8.78375 -3.61875 9.5675 -3.9375 10.375 C-5 13 -5 13 -6 15 C-6.66 15 -7.32 15 -8 15 C-6.76964855 10.93037598 -5.21023519 7.61674849 -3 4 C-3 3.34 -3 2.68 -3 2 C-6.22695803 3.61347901 -6.66223315 6.76706344 -8 10 C-8.99 11.485 -8.99 11.485 -10 13 C-10.66 13 -11.32 13 -12 13 C-11.48357735 7.70666782 -9.90807082 4.36210623 -7 0 C-3.86650268 -1.04449911 -3.01031744 -0.93423645 0 0 Z " fill="#B18362" transform="translate(193,83)"/>
<path d="M0 0 C8.34449929 3.03436338 15.51374415 7.97052273 22 14 C22 14.66 22 15.32 22 16 C23.13888672 16.09087891 23.13888672 16.09087891 24.30078125 16.18359375 C25.29464844 16.26738281 26.28851563 16.35117188 27.3125 16.4375 C28.29863281 16.51871094 29.28476563 16.59992188 30.30078125 16.68359375 C33 17 33 17 36 18 C32.34857269 20.43428487 31.32288211 20.62878285 27 20 C20.13213483 16.83978668 14.20594694 12.00247698 8.37866211 7.25244141 C5.11646278 4.55015683 5.11646278 4.55015683 1 4 C0.67 2.68 0.34 1.36 0 0 Z " fill="#606060" transform="translate(152,145)"/>
<path d="M0 0 C0.33 0 0.66 0 1 0 C3.32654024 13.79306 4.40559032 27.01464504 4 41 C0.78548731 42.60725635 -2.43612536 42.05748185 -6 42 C-6 41.67 -6 41.34 -6 41 C-3.69 40.34 -1.38 39.68 1 39 C2.25730725 33.59269961 1.72300779 28.86742875 1.0625 23.4375 C0.18080524 15.56718378 -0.26033805 7.92584736 0 0 Z " fill="#B8B8B8" transform="translate(184,119)"/>
<path d="M0 0 C-0.56865001 3.29817006 -1.31978175 4.96033705 -4 7 C-7.03125 7.6171875 -7.03125 7.6171875 -10.5 7.875 C-11.6446875 7.97554688 -12.789375 8.07609375 -13.96875 8.1796875 C-17 8 -17 8 -18.90625 6.6328125 C-20 5 -20 5 -20 3 C-19.19175781 3.03480469 -18.38351563 3.06960937 -17.55078125 3.10546875 C-15.94783203 3.14607422 -15.94783203 3.14607422 -14.3125 3.1875 C-12.72888672 3.23970703 -12.72888672 3.23970703 -11.11328125 3.29296875 C-6.73601668 2.88105552 -4.33540788 0 0 0 Z " fill="#AD8067" transform="translate(140,116)"/>
<path d="M0 0 C-0.49730652 4.97306516 -1.55302334 8.63799813 -4 13 C-5.98 13 -7.96 13 -10 13 C-9.72387317 9.04218214 -9.25946652 7.30043492 -6.625 4.25 C-1.66666667 0 -1.66666667 0 0 0 Z " fill="#3D3A38" transform="translate(117,67)"/>
<path d="M0 0 C0.99 0.66 1.98 1.32 3 2 C3 3.32 3 4.64 3 6 C3.94875 5.938125 4.8975 5.87625 5.875 5.8125 C6.90625 5.874375 7.9375 5.93625 9 6 C9.99 7.485 9.99 7.485 11 9 C13.05003955 10.19232613 13.05003955 10.19232613 15 11 C13.86111328 10.98259766 13.86111328 10.98259766 12.69921875 10.96484375 C11.70535156 10.95582031 10.71148437 10.94679688 9.6875 10.9375 C8.70136719 10.92589844 7.71523437 10.91429688 6.69921875 10.90234375 C3.90036151 10.87670138 3.90036151 10.87670138 1 12 C0.87882812 11.28972656 0.75765625 10.57945313 0.6328125 9.84765625 C0.46523437 8.92855469 0.29765625 8.00945312 0.125 7.0625 C-0.03742188 6.14597656 -0.19984375 5.22945313 -0.3671875 4.28515625 C-0.57601562 3.53105469 -0.78484375 2.77695313 -1 2 C-1.66 1.67 -2.32 1.34 -3 1 C-2.01 0.67 -1.02 0.34 0 0 Z " fill="#CEA183" transform="translate(123,100)"/>
<path d="M0 0 C9.54594572 4.22458875 18.8375954 9.61380981 24 19 C20.51327545 17.4512456 17.81445969 15.35487655 14.875 12.9375 C11.61448977 10.19551253 11.61448977 10.19551253 8 8 C8 7.34 8 6.68 8 6 C7.05125 5.690625 6.1025 5.38125 5.125 5.0625 C2 4 2 4 0 3 C-0.33 3.66 -0.66 4.32 -1 5 C-0.67 3.35 -0.34 1.7 0 0 Z " fill="#B7B7B7" transform="translate(149,136)"/>
<path d="M0 0 C4.29 0.33 8.58 0.66 13 1 C13 2.65 13 4.3 13 6 C8.71 6 4.42 6 0 6 C0 4.02 0 2.04 0 0 Z " fill="#353535" transform="translate(171,113)"/>
<path d="M0 0 C-0.875 7.875 -0.875 7.875 -2 9 C-4.33297433 9.04092937 -6.66705225 9.04241723 -9 9 C-9.3125 6.75 -9.3125 6.75 -9 4 C-5.79364489 0.70457948 -4.69279787 0 0 0 Z " fill="#403D3B" transform="translate(127,70)"/>
<path d="M0 0 C1.9453125 0.765625 1.9453125 0.765625 4 2 C5.25809613 7.39184057 5.20420729 10.8136299 3 16 C2.34 16 1.68 16 1 16 C0.08342019 10.61509359 -0.11138159 5.45769811 0 0 Z " fill="#A98E7D" transform="translate(147,98)"/>
<path d="M0 0 C0.97120405 2.62225095 1.12711064 3.6888825 0.04931641 6.3269043 C-1.03343668 9.08517875 -1.30566271 11.13717033 -1.4140625 14.08203125 C-1.45273438 15.01337891 -1.49140625 15.94472656 -1.53125 16.90429688 C-1.5621875 17.86400391 -1.593125 18.82371094 -1.625 19.8125 C-1.66367188 20.79154297 -1.70234375 21.77058594 -1.7421875 22.77929688 C-1.83610816 25.18601374 -1.92178201 27.59273012 -2 30 C-2.99 30 -3.98 30 -5 30 C-4.57446809 9.46808511 -4.57446809 9.46808511 0 0 Z " fill="#8D8D8D" transform="translate(102,146)"/>
<path d="M0 0 C5.61 0.33 11.22 0.66 17 1 C13.41087588 4.58912412 12.22706417 4.44420474 7.3125 4.6875 C6.13300781 4.75324219 4.95351562 4.81898438 3.73828125 4.88671875 C2.38283203 4.94279297 2.38283203 4.94279297 1 5 C0.67 3.35 0.34 1.7 0 0 Z " fill="#6D4529" transform="translate(118,129)"/>
<path d="M0 0 C0 0.33 0 0.66 0 1 C-1.6396875 1.2475 -1.6396875 1.2475 -3.3125 1.5 C-7.00544504 2.56869679 -7.00544504 2.56869679 -8.1328125 4.9140625 C-8.86617724 6.92903553 -9.49149172 8.9175375 -10 11 C-11.32 10.67 -12.64 10.34 -14 10 C-14 7.69 -14 5.38 -14 3 C-8.99067246 -0.00559652 -5.67276511 -0.29341888 0 0 Z " fill="#C39779" transform="translate(124,84)"/>
<path d="M0 0 C0 0.99 0 1.98 0 3 C4.455 2.505 4.455 2.505 9 2 C9 2.33 9 2.66 9 3 C11.64 3 14.28 3 17 3 C16.67 3.66 16.34 4.32 16 5 C9.07 5 2.14 5 -5 5 C-4.67 3.68 -4.34 2.36 -4 1 C-2 0 -2 0 0 0 Z " fill="#3A3734" transform="translate(119,131)"/>
<path d="M0 0 C2.4375 0.875 2.4375 0.875 5 3 C5.57332019 5.59933891 5.750102 8.0649808 5.859375 10.72265625 C5.85290247 13.03183653 5.85290247 13.03183653 7 15 C7.04022391 17.3329866 7.04320247 19.66706666 7 22 C4.4429485 20.09092068 4.00205532 19.00989958 3.33984375 15.8203125 C3.20707031 14.60085937 3.07429687 13.38140625 2.9375 12.125 C2.44734194 7.727582 1.84882373 4.03519205 0 0 Z " fill="#835839" transform="translate(166,92)"/>
<path d="M0 0 C5.68630223 6.46170707 5.26479234 13.86499102 5 22 C4.34 22 3.68 22 3 22 C2.86722656 20.99839844 2.73445312 19.99679688 2.59765625 18.96484375 C2.41928873 17.62239346 2.2409023 16.27994567 2.0625 14.9375 C1.97548828 14.28072266 1.88847656 13.62394531 1.79882812 12.94726562 C1.22430303 8.62768808 0.62254173 4.31292423 0 0 Z " fill="#1A1512" transform="translate(142,77)"/>
<path d="M0 0 C2.44082514 8.59170451 0.65279245 17.4113821 -1 26 C-1.33 26 -1.66 26 -2 26 C-2.05830787 22.60423938 -2.09369946 19.2086085 -2.125 15.8125 C-2.14175781 14.85279297 -2.15851563 13.89308594 -2.17578125 12.90429688 C-2.18222656 11.97294922 -2.18867187 11.04160156 -2.1953125 10.08203125 C-2.20578613 9.22843018 -2.21625977 8.3748291 -2.22705078 7.49536133 C-1.97204194 4.69273185 -1.15541422 2.55270581 0 0 Z " fill="#B6B6B6" transform="translate(102,150)"/>
<path d="M0 0 C0.66 0.33 1.32 0.66 2 1 C1.71788123 2.6266848 1.42397625 4.25132896 1.125 5.875 C0.96257812 6.77992187 0.80015625 7.68484375 0.6328125 8.6171875 C0 11 0 11 -2 13 C-2.33 14.32 -2.66 15.64 -3 17 C-5.97 16.67 -8.94 16.34 -12 16 C-11.67 14.68 -11.34 13.36 -11 12 C-11 12.99 -11 13.98 -11 15 C-8.08369887 15.05749557 -8.08369887 15.05749557 -5 14 C-3.61448893 11.5258731 -2.78847812 9.65785007 -2 7 C-1.79503906 6.33355469 -1.59007813 5.66710937 -1.37890625 4.98046875 C-0.89102249 3.32839341 -0.44173685 1.66500812 0 0 Z " fill="#2D2A27" transform="translate(118,65)"/>
<path d="M0 0 C0.99 0 1.98 0 3 0 C1.125 4.75 1.125 4.75 0 7 C-0.66 7 -1.32 7 -2 7 C-2.2475 7.763125 -2.495 8.52625 -2.75 9.3125 C-4.10995558 12.2364045 -5.31585826 13.30004356 -8 15 C-7.33333333 13.33333333 -6.66666667 11.66666667 -6 10 C-5.566875 8.7625 -5.566875 8.7625 -5.125 7.5 C-3.79078747 4.53508327 -2.22871668 2.36379042 0 0 Z " fill="#D2A484" transform="translate(193,96)"/>
<path d="M0 0 C0.66 0.33 1.32 0.66 2 1 C1.58894145 6.24099655 0.75960806 9.24039194 -3 13 C-3.66 13 -4.32 13 -5 13 C-5.25 10.75 -5.25 10.75 -5 8 C-3.70896357 6.6256709 -2.3743291 5.29103643 -1 4 C-0.2127322 1.8618034 -0.2127322 1.8618034 0 0 Z " fill="#141210" transform="translate(146,112)"/>
<path d="M0 0 C2.94254088 5.49274298 3.10256707 9.84597554 3 16 C3.66 16 4.32 16 5 16 C5.33 17.32 5.66 18.64 6 20 C7.98 19.67 9.96 19.34 12 19 C12 19.66 12 20.32 12 21 C5.5 21.36792453 5.5 21.36792453 3.34375 19.78125 C-0.63049635 14.51306298 -0.23397207 6.31724595 0 0 Z " fill="#A67B5C" transform="translate(107,97)"/>
<path d="M0 0 C0.99 0.495 0.99 0.495 2 1 C2 1.99 2 2.98 2 4 C2.66 4 3.32 4 4 4 C4.33 5.98 4.66 7.96 5 10 C7.64 10 10.28 10 13 10 C13 10.33 13 10.66 13 11 C9.37 11.33 5.74 11.66 2 12 C1.855625 10.948125 1.71125 9.89625 1.5625 8.8125 C1.12473034 5.84539451 0.62195134 2.93205634 0 0 Z " fill="#CFA183" transform="translate(172,101)"/>
<path d="M0 0 C2.35108558 3.70821628 2.43155058 7.48605238 2.625 11.75 C2.66367188 12.44738281 2.70234375 13.14476562 2.7421875 13.86328125 C2.83598624 15.57510818 2.91906174 17.28751682 3 19 C3.66 19 4.32 19 5 19 C5 20.65 5 22.3 5 24 C2.19857632 22.59928816 1.63530333 20.58919909 0.59765625 17.7421875 C-0.66376468 11.95449147 -0.20715016 5.89227135 0 0 Z " fill="#989898" transform="translate(172,130)"/>
<path d="M0 0 C0.99 0 1.98 0 3 0 C2.84660156 0.51046875 2.69320312 1.0209375 2.53515625 1.546875 C1.83094597 4.7749338 1.65111796 7.95418001 1.4375 11.25 C1.35371094 12.51328125 1.26992187 13.7765625 1.18359375 15.078125 C1.12300781 16.04234375 1.06242187 17.0065625 1 18 C0.34 18 -0.32 18 -1 18 C-1.02707139 15.75006641 -1.04642829 13.50003905 -1.0625 11.25 C-1.07410156 9.99703125 -1.08570312 8.7440625 -1.09765625 7.453125 C-1.02021027 4.71463499 -0.82780815 2.58119707 0 0 Z " fill="#909090" transform="translate(116,158)"/>
<path d="M0 0 C3.21746321 2.65790439 3.08233008 3.41165038 4 8 C0.04 7.67 -3.92 7.34 -8 7 C-7.67 6.34 -7.34 5.68 -7 5 C-4.69 5 -2.38 5 0 5 C0 3.35 0 1.7 0 0 Z " fill="#84644D" transform="translate(140,86)"/>
<path d="M0 0 C0.33 0 0.66 0 1 0 C1 6.6 1 13.2 1 20 C-2.21451269 21.60725635 -5.43612536 21.05748185 -9 21 C-9 20.67 -9 20.34 -9 20 C-7.865625 19.731875 -6.73125 19.46375 -5.5625 19.1875 C-4.386875 18.795625 -3.21125 18.40375 -2 18 C-0.81304447 14.43913342 -0.64904582 11.02668976 -0.4375 7.3125 C-0.39431641 6.61060547 -0.35113281 5.90871094 -0.30664062 5.18554688 C-0.2008264 3.45724794 -0.09993419 1.7286489 0 0 Z " fill="#B0B0B0" transform="translate(187,140)"/>
<path d="M0 0 C0.99 0.495 0.99 0.495 2 1 C2 3.64 2 6.28 2 9 C2.598125 8.649375 3.19625 8.29875 3.8125 7.9375 C6 7 6 7 9 8 C7.8125 9.5 7.8125 9.5 6 11 C3.3125 11.1875 3.3125 11.1875 1 11 C-0.20272819 8.59454362 -0.10071472 7.05003047 -0.0625 4.375 C-0.05347656 3.55773437 -0.04445313 2.74046875 -0.03515625 1.8984375 C-0.02355469 1.27195312 -0.01195313 0.64546875 0 0 Z " fill="#D3A688" transform="translate(112,106)"/>
<path d="M0 0 C1.4540625 0.0309375 1.4540625 0.0309375 2.9375 0.0625 C3.2675 1.3825 3.5975 2.7025 3.9375 4.0625 C-0.5175 4.5575 -0.5175 4.5575 -5.0625 5.0625 C-3.81634615 0.07788462 -3.81634615 0.07788462 0 0 Z " fill="#CFA283" transform="translate(138.0625,93.9375)"/>
<path d="M0 0 C0.33 0.99 0.66 1.98 1 3 C4.96 3 8.92 3 13 3 C8.44274358 6.41794232 7.63707547 6.2800783 2.25 5.6875 C0.49429688 5.50767578 0.49429688 5.50767578 -1.296875 5.32421875 C-2.18890625 5.21722656 -3.0809375 5.11023438 -4 5 C-2.68 4.67 -1.36 4.34 0 4 C0 2.68 0 1.36 0 0 Z " fill="#675244" transform="translate(126,108)"/>
<path d="M0 0 C1.32 0.66 2.64 1.32 4 2 C2.625 3.5 2.625 3.5 1 5 C0.34 5 -0.32 5 -1 5 C-1.309375 5.78375 -1.61875 6.5675 -1.9375 7.375 C-3 10 -3 10 -4 12 C-4.66 12 -5.32 12 -6 12 C-4.68139111 7.38486888 -2.78644563 3.90102388 0 0 Z " fill="#A77958" transform="translate(191,86)"/>
<path d="M0 0 C1.5625 1.5625 1.5625 1.5625 3 4 C2.6875 7.75 2.6875 7.75 2 11 C0.68 11.33 -0.64 11.66 -2 12 C-2.33 11.34 -2.66 10.68 -3 10 C-2.34 9.67 -1.68 9.34 -1 9 C-1.020625 7.700625 -1.04125 6.40125 -1.0625 5.0625 C-1.08399454 3.70834367 -1.07148199 2.35243917 -1 1 C-0.67 0.67 -0.34 0.34 0 0 Z " fill="#D1A283" transform="translate(142,101)"/>
<path d="M0 0 C0.33 1.32 0.66 2.64 1 4 C1.66 4 2.32 4 3 4 C3.33 8.62 3.66 13.24 4 18 C3.34 17.67 2.68 17.34 2 17 C1.62109375 15.1875 1.62109375 15.1875 1.4375 13 C1.37334592 10.21067942 1.37334592 10.21067942 0 8 C-0.14115161 5.32941149 -0.04247107 2.67567762 0 0 Z " fill="#70533E" transform="translate(144,95)"/>
<path d="M0 0 C-1.66751148 3.94139078 -4.22710649 6.7892812 -7 10 C-7.66 9.67 -8.32 9.34 -9 9 C-5 0 -5 0 0 0 Z " fill="#5A5A5A" transform="translate(145,124)"/>
<path d="M0 0 C0 3 0 3 -2 6 C-5.125 6.6875 -5.125 6.6875 -8 7 C-8 6.34 -8 5.68 -8 5 C-9.98 5.99 -9.98 5.99 -12 7 C-12.99 6.34 -13.98 5.68 -15 5 C-14.16855469 4.89042969 -13.33710937 4.78085938 -12.48046875 4.66796875 C-11.39378906 4.50941406 -10.30710938 4.35085937 -9.1875 4.1875 C-7.56908203 3.96126953 -7.56908203 3.96126953 -5.91796875 3.73046875 C-2.93559009 2.98387597 -1.85776521 2.37924316 0 0 Z " fill="#3D3835" transform="translate(139,119)"/>
<path d="M0 0 C0.66 0 1.32 0 2 0 C1.67 0.99 1.34 1.98 1 3 C1.99 3.66 2.98 4.32 4 5 C4 5.66 4 6.32 4 7 C3.34 7 2.68 7 2 7 C2 6.34 2 5.68 2 5 C-1.69418201 6.231394 -3.35109746 8.20791354 -6 11 C-5.39096941 7.90694578 -4.40131197 5.80360238 -2.5625 3.25 C-2.13066406 2.63640625 -1.69882813 2.0228125 -1.25390625 1.390625 C-0.63322266 0.70226562 -0.63322266 0.70226562 0 0 Z " fill="#A77A5B" transform="translate(194,91)"/>
<path d="M0 0 C3.875 0.875 3.875 0.875 5 2 C5.04080783 3.99958364 5.04254356 6.00045254 5 8 C3.35 8 1.7 8 0 8 C0 5.36 0 2.72 0 0 Z " fill="#C29371" transform="translate(135,83)"/>
<path d="M0 0 C0.99 0 1.98 0 3 0 C2.61912394 2.20908114 2.07400952 3.87374847 0.9375 5.8125 C-2.31554229 7.80630011 -5.33858411 6.66025532 -9 6 C-9 5.67 -9 5.34 -9 5 C-6.69 5 -4.38 5 -2 5 C-1.855625 4.360625 -1.71125 3.72125 -1.5625 3.0625 C-1 1 -1 1 0 0 Z " fill="#BB9075" transform="translate(137,116)"/>
<path d="M0 0 C2.475 0.99 2.475 0.99 5 2 C4.67 3.32 4.34 4.64 4 6 C2.35 5.67 0.7 5.34 -1 5 C-1.33 5.66 -1.66 6.32 -2 7 C-2.125 4.625 -2.125 4.625 -2 2 C-1.34 1.34 -0.68 0.68 0 0 Z " fill="#AC7F60" transform="translate(100,106)"/>
<path d="M0 0 C0.33 0 0.66 0 1 0 C1.06058594 0.83402344 1.12117188 1.66804688 1.18359375 2.52734375 C1.66828087 9.03706466 2.23091353 15.51769975 3 22 C0.78552608 19.78552608 0.07362724 18.23297922 -0.11352539 15.09887695 C-0.10828857 14.40238037 -0.10305176 13.70588379 -0.09765625 12.98828125 C-0.09443359 12.23095703 -0.09121094 11.47363281 -0.08789062 10.69335938 C-0.07951172 9.90767578 -0.07113281 9.12199219 -0.0625 8.3125 C-0.05798828 7.51521484 -0.05347656 6.71792969 -0.04882812 5.89648438 C-0.0370585 3.93095743 -0.01912348 1.96546915 0 0 Z " fill="#886145" transform="translate(106,92)"/>
<path d="M0 0 C2.00720923 0.28674418 4.0085944 0.61866701 6 1 C5.34 2.65 4.68 4.3 4 6 C2.35 6 0.7 6 -1 6 C-1 5.34 -1 4.68 -1 4 C-0.34 4 0.32 4 1 4 C1 3.34 1 2.68 1 2 C0.34 1.67 -0.32 1.34 -1 1 C-0.67 0.67 -0.34 0.34 0 0 Z " fill="#433526" transform="translate(116,101)"/>
<path d="M0 0 C0.66 0 1.32 0 2 0 C3.61949011 2.57213134 4.04408751 3.67669159 3.625 6.75 C3.41875 7.4925 3.2125 8.235 3 9 C2.01 9 1.02 9 0 9 C0 6.03 0 3.06 0 0 Z " fill="#302D2A" transform="translate(134,72)"/>
<path d="M0 0 C0.66 0.66 1.32 1.32 2 2 C2.99 2 3.98 2 5 2 C3.60667426 5.36720387 2.0210714 6.9859524 -1 9 C-1.66 8.67 -2.32 8.34 -3 8 C-2.01 5.36 -1.02 2.72 0 0 Z " fill="#1D1916" transform="translate(120,65)"/>
<path d="M0 0 C2.125 0.375 2.125 0.375 4 1 C2.84826645 3.46800047 1.95216435 5.04783565 0 7 C-0.99 7 -1.98 7 -3 7 C-2.25 2.25 -2.25 2.25 0 0 Z " fill="#CDA285" transform="translate(114,96)"/>
<path d="M0 0 C0.33 0 0.66 0 1 0 C1.36923077 7.38461538 1.36923077 7.38461538 -0.5 10.5 C-0.995 10.995 -1.49 11.49 -2 12 C-3.34899329 5.74557657 -3.34899329 5.74557657 -1.625 2.0625 C-1.08875 1.381875 -0.5525 0.70125 0 0 Z " fill="#B1B1B1" transform="translate(148,143)"/>
<path d="M0 0 C10.74259681 3.66970387 10.74259681 3.66970387 14 9 C11.63080832 7.81540416 9.27787331 6.61683073 6.9375 5.375 C4.08771867 3.78802995 4.08771867 3.78802995 1 4 C0.67 2.68 0.34 1.36 0 0 Z " fill="#7D7D7D" transform="translate(150,142)"/>
<path d="M0 0 C1.64936913 0.78427352 3.29441127 1.57765259 4.9375 2.375 C5.85402344 2.81585938 6.77054688 3.25671875 7.71484375 3.7109375 C10 5 10 5 11 7 C6.87248551 6.39301257 3.6678852 4.96189209 0 3 C-0.33 3.66 -0.66 4.32 -1 5 C-0.67 3.35 -0.34 1.7 0 0 Z " fill="#BEBEBE" transform="translate(149,136)"/>
<path d="M0 0 C1.65 0 3.3 0 5 0 C5.33 1.65 5.66 3.3 6 5 C4.35 4.67 2.7 4.34 1 4 C0.67 2.68 0.34 1.36 0 0 Z " fill="#D0A283" transform="translate(167,90)"/>
<path d="M0 0 C0.33 0.66 0.66 1.32 1 2 C4.63 2 8.26 2 12 2 C12 2.33 12 2.66 12 3 C11.19175781 3.06058594 10.38351563 3.12117187 9.55078125 3.18359375 C7.94783203 3.30927734 7.94783203 3.30927734 6.3125 3.4375 C5.25675781 3.51871094 4.20101562 3.59992188 3.11328125 3.68359375 C0.34913703 3.96451681 -2.28945741 4.40156852 -5 5 C-3.35 3.35 -1.7 1.7 0 0 Z " fill="#909090" transform="translate(113,134)"/>
<path d="M0 0 C0.66 0 1.32 0 2 0 C2 3.96 2 7.92 2 12 C1.01 12 0.02 12 -1 12 C-0.67 8.04 -0.34 4.08 0 0 Z " fill="#9B9B9B" transform="translate(151,164)"/>
<path d="M0 0 C1.98 0.99 1.98 0.99 4 2 C3.67 3.32 3.34 4.64 3 6 C2.34 6 1.68 6 1 6 C0.67 6.99 0.34 7.98 0 9 C0 6.03 0 3.06 0 0 Z " fill="#AF8568" transform="translate(147,98)"/>
<path d="M0 0 C0.99 0 1.98 0 3 0 C5 3 5 3 4.625 5.1875 C4.41875 5.785625 4.2125 6.38375 4 7 C2 5.75 2 5.75 0 4 C0 2.68 0 1.36 0 0 Z " fill="#E5BA9E" transform="translate(172,97)"/>
<path d="M0 0 C-1 1.5 -1 1.5 -3 3 C-5.71846235 3.27345479 -8.25677199 3.13491285 -11 3 C-10.67 2.34 -10.34 1.68 -10 1 C-6.6322481 0.06451336 -3.4815554 -0.09947301 0 0 Z " fill="#291411" transform="translate(135,117)"/>
<path d="M0 0 C0.99 0.66 1.98 1.32 3 2 C-0.59258142 4.89158993 -2.17748885 6.05306524 -6.875 5.75 C-7.90625 5.5025 -8.9375 5.255 -10 5 C-10 4.67 -10 4.34 -10 4 C-6.7 3.67 -3.4 3.34 0 3 C0 2.01 0 1.02 0 0 Z " fill="#473E38" transform="translate(139,112)"/>
<path d="M0 0 C2.4375 0.375 2.4375 0.375 5 1 C5.33 1.66 5.66 2.32 6 3 C8.01669827 4.13350534 8.01669827 4.13350534 10 5 C7.69 5 5.38 5 3 5 C3 4.01 3 3.02 3 2 C2.01 2 1.02 2 0 2 C0 1.34 0 0.68 0 0 Z " fill="#B0876A" transform="translate(128,106)"/>
<path d="M0 0 C0 0.66 0 1.32 0 2 C-1.32 2.33 -2.64 2.66 -4 3 C-4.33 5.31 -4.66 7.62 -5 10 C-5.33 10 -5.66 10 -6 10 C-6 6.7 -6 3.4 -6 0 C-3 -1 -3 -1 0 0 Z " fill="#AD8C74" transform="translate(117,103)"/>
<path d="M0 0 C0.99 0 1.98 0 3 0 C1.8141763 3.37503669 0.72426311 5.64722731 -2 8 C-2 4.79604584 -1.25664978 2.90600261 0 0 Z " fill="#DDB194" transform="translate(193,96)"/>
<path d="M0 0 C1.32 0.33 2.64 0.66 4 1 C3.01 1 2.02 1 1 1 C0.9175 1.7425 0.835 2.485 0.75 3.25 C-0.1396946 6.51221354 -1.48503749 7.80954878 -4 10 C-2.8905928 6.51329166 -1.73662334 3.22515763 0 0 Z " fill="#A57757" transform="translate(182,82)"/>
<path d="M0 0 C0.66 0.66 1.32 1.32 2 2 C1.625 4.125 1.625 4.125 1 6 C-0.875 5.6875 -0.875 5.6875 -3 5 C-3.66 4.01 -4.32 3.02 -5 2 C-2.525 2.495 -2.525 2.495 0 3 C0 2.01 0 1.02 0 0 Z " fill="#875E42" transform="translate(106,116)"/>
<path d="M0 0 C1.73662334 3.22515763 2.8905928 6.51329166 4 10 C3.01 10.33 2.02 10.66 1 11 C0.63743142 9.5437328 0.28520207 8.08488815 -0.0625 6.625 C-0.35833984 5.40683594 -0.35833984 5.40683594 -0.66015625 4.1640625 C-1 2 -1 2 0 0 Z " fill="#2F2620" transform="translate(105,105)"/>
<path d="M0 0 C2 2 2 2 2.125 5.125 C2.08375 6.07375 2.0425 7.0225 2 8 C0.68 7.67 -0.64 7.34 -2 7 C-2 5.02 -2 3.04 -2 1 C-1.34 0.67 -0.68 0.34 0 0 Z " fill="#D0A080" transform="translate(112,87)"/>
<path d="M0 0 C3.875 1.75 3.875 1.75 5 4 C4.34 4 3.68 4 3 4 C3 5.65 3 7.3 3 9 C1.35173889 6.03312999 0.55728913 3.34373475 0 0 Z " fill="#1D1916" transform="translate(136,71)"/>
<path d="M0 0 C0.99 0 1.98 0 3 0 C3 1.65 3 3.3 3 5 C1.68 5.33 0.36 5.66 -1 6 C-1 5.34 -1 4.68 -1 4 C-0.34 4 0.32 4 1 4 C1 3.34 1 2.68 1 2 C0.34 1.67 -0.32 1.34 -1 1 C-0.67 0.67 -0.34 0.34 0 0 Z " fill="#302417" transform="translate(135,98)"/>
<path d="M0 0 C0.66 0.33 1.32 0.66 2 1 C2.625 3.5625 2.625 3.5625 3 6 C1.68 6.99 0.36 7.98 -1 9 C-0.34 7.02 0.32 5.04 1 3 C0.01 2.67 -0.98 2.34 -2 2 C-1.34 1.34 -0.68 0.68 0 0 Z " fill="#A9A9A9" transform="translate(118,155)"/>
<path d="M0 0 C0 0.99 0 1.98 0 3 C-3.3 3.33 -6.6 3.66 -10 4 C-8.68 3.34 -7.36 2.68 -6 2 C-5.29875 1.62875 -4.5975 1.2575 -3.875 0.875 C-2 0 -2 0 0 0 Z " fill="#2A2826" transform="translate(139,112)"/>
<path d="M0 0 C1.98 0 3.96 0 6 0 C6 0.66 6 1.32 6 2 C4.35 2.66 2.7 3.32 1 4 C0.67 2.68 0.34 1.36 0 0 Z " fill="#9A7C65" transform="translate(130,100)"/>
</svg>
